<?xml version="1.0" encoding="UTF-8"?>
<!DOCTYPE svg PUBLIC "-//W3C//DTD SVG 1.1//EN" "http://www.w3.org/Graphics/SVG/1.1/DTD/svg11.dtd">
<!-- Creator: CorelDRAW X7 -->
<svg xmlns="http://www.w3.org/2000/svg" xml:space="preserve" width="2.39583in" height="1.26096in" version="1.1" style="shape-rendering:geometricPrecision; text-rendering:geometricPrecision; image-rendering:optimizeQuality; fill-rule:evenodd; clip-rule:evenodd"
viewBox="0 0 726 382"
 xmlns:xlink="http://www.w3.org/1999/xlink">
 <defs>
  <style type="text/css">
   <![CDATA[
    .fil2 {fill:none}
    .fil1 {fill:#3E4095}
    .fil0 {fill:#3E4095;fill-rule:nonzero}
   ]]>
  </style>
 </defs>
 <g id="Layer_x0020_1">
  <metadata id="CorelCorpID_0Corel-Layer"/>
  <g id="_1184227536">
   <g>
    <path class="fil0" d="M110 47c13,0 25,1 36,3 16,4 23,10 23,21 0,3 -1,6 -2,7 -2,2 -5,5 -12,8 -5,3 -8,9 -10,18 -1,9 -2,27 -2,54 0,45 1,73 3,83 1,4 2,6 4,8 1,2 4,4 8,6 8,4 11,9 11,16 0,9 -7,15 -20,19 -15,4 -33,6 -55,6 -36,0 -55,-8 -55,-22 0,-6 4,-11 11,-15 6,-4 9,-9 10,-15 2,-13 3,-42 3,-85 0,-31 -1,-50 -4,-58 -2,-5 -6,-10 -12,-13 -4,-4 -7,-6 -9,-8 -1,-3 -2,-5 -2,-9 0,-5 2,-9 7,-12 4,-3 13,-5 24,-8 14,-3 29,-4 43,-4zm162 245l-22 0c-16,0 -28,1 -35,1 -7,1 -11,1 -14,1 -7,0 -13,-2 -17,-5 -4,-4 -5,-8 -5,-14 0,-3 0,-5 2,-7 1,-2 5,-5 10,-9 4,-3 6,-6 7,-11 1,-5 3,-16 4,-33 2,-25 3,-57 3,-95 0,-13 -1,-22 -2,-27 -2,-5 -6,-8 -13,-11 -7,-4 -11,-8 -11,-15 0,-5 3,-9 7,-13 4,-3 10,-5 17,-5 4,0 9,1 15,1 10,1 20,1 32,1 8,0 25,-1 50,-1 7,-1 14,-1 21,-1 15,0 27,2 36,4 9,3 17,7 24,13 11,10 16,23 16,39 0,8 -1,16 -5,24 -3,8 -7,14 -13,19 -4,3 -6,6 -6,9 0,3 3,5 7,7 10,4 18,10 25,20 8,9 12,21 12,36 0,17 -6,32 -18,46 -15,19 -38,28 -69,28 -4,0 -14,0 -31,-1 -14,-1 -23,-1 -27,-1zm12 -192l0 36c0,6 0,10 2,13 1,2 4,3 7,3 9,0 15,-3 19,-8 4,-5 5,-14 5,-25 0,-11 -2,-20 -6,-26 -4,-6 -9,-9 -17,-9 -4,0 -6,1 -8,3 -2,3 -2,7 -2,13zm0 102l0 17c0,15 1,25 3,30 2,6 6,8 13,8 17,0 26,-10 26,-31 0,-27 -10,-40 -29,-40 -5,0 -8,1 -10,4 -2,2 -3,6 -3,12zm216 -151l89 0c10,-1 19,-2 26,-4 4,-1 7,-2 9,-2 10,0 18,7 27,21 9,14 13,29 13,44 0,10 -3,18 -9,22 -5,4 -10,6 -16,6 -6,0 -11,-2 -16,-5 -4,-4 -8,-10 -13,-18 -3,-7 -6,-12 -9,-14 -2,-2 -4,-3 -7,-3 -4,0 -7,2 -9,5 -2,4 -3,10 -3,18l0 99c0,10 1,18 3,22 2,5 6,9 12,11 6,3 10,5 12,8 2,2 3,5 3,10 0,8 -5,15 -16,19 -11,4 -28,6 -51,6 -28,0 -48,-3 -62,-7 -11,-4 -17,-11 -17,-20 0,-5 2,-8 6,-11 1,-1 5,-2 12,-4 5,-2 7,-4 9,-8 2,-4 3,-11 4,-21 1,-9 2,-24 3,-45 0,-20 1,-38 1,-53 0,-11 -1,-18 -3,-23 -1,-4 -4,-7 -7,-7 -5,0 -9,4 -13,10 -8,12 -14,20 -19,24 -5,5 -11,7 -16,7 -6,0 -11,-2 -15,-7 -4,-5 -6,-11 -6,-18 0,-8 1,-16 4,-24 4,-9 8,-17 13,-25 9,-12 17,-18 25,-18 3,0 5,1 8,1 6,2 11,2 15,3 4,0 8,1 13,1z"/>
    <path class="fil1" d="M673 36c3,0 6,1 8,2 3,2 5,4 7,7 2,2 2,5 2,8 0,3 0,6 -2,9 -2,3 -4,5 -7,7 -2,1 -5,2 -8,2 -3,0 -6,-1 -9,-2 -3,-2 -5,-4 -7,-7 -1,-3 -2,-6 -2,-9 0,-3 1,-6 2,-8 2,-3 4,-5 7,-7 3,-1 6,-2 9,-2zm0 3c-3,0 -5,0 -8,2 -2,1 -4,3 -5,5 -1,2 -2,5 -2,7 0,3 1,5 2,8 1,2 3,4 5,5 3,1 5,2 8,2 2,0 5,-1 7,-2 2,-1 4,-3 5,-5 2,-3 2,-5 2,-8 0,-2 0,-5 -2,-7 -1,-2 -3,-4 -5,-5 -2,-2 -5,-2 -7,-2zm-8 24l0 -19 6 0c3,0 4,0 5,1 1,0 2,1 3,2 0,1 1,1 1,2 0,2 -1,3 -2,4 -1,1 -2,2 -4,2 1,0 1,0 2,1 1,0 1,2 3,3l2 4 -4 0 -2 -3c-1,-2 -2,-4 -3,-4 0,-1 -1,-1 -2,-1l-2 0 0 8 -3 0zm3 -10l4 0c2,0 3,-1 3,-1 1,-1 1,-1 1,-2 0,-1 0,-1 0,-2 0,0 -1,-1 -1,-1 -1,0 -2,0 -4,0l-3 0 0 6z"/>
    <path class="fil0" d="M37 345l0 -39 8 0 0 39 -8 0zm15 -39l16 0c3,0 5,0 7,0 1,1 3,1 4,2 1,1 2,2 3,3 1,2 1,3 1,5 0,2 -1,3 -2,5 -1,2 -2,3 -4,4 3,0 5,1 6,3 1,2 2,4 2,6 0,2 -1,4 -1,5 -1,2 -2,3 -4,4 -1,1 -3,2 -5,2 -1,0 -5,0 -10,0l-13 0 0 -39zm8 7l0 9 5 0c3,0 5,0 6,0 1,-1 2,-1 3,-2 1,-1 1,-2 1,-3 0,-1 0,-2 -1,-3 0,-1 -1,-1 -3,-1 -1,0 -3,0 -6,0l-5 0zm0 15l0 11 7 0c3,0 5,0 6,0 1,-1 2,-1 3,-2 0,-1 1,-2 1,-3 0,-2 -1,-3 -1,-3 -1,-1 -2,-2 -3,-2 -1,-1 -3,-1 -7,-1l-6 0zm40 17l0 -32 -11 0 0 -7 31 0 0 7 -12 0 0 32 -8 0zm40 0l0 -39 8 0 0 39 -8 0zm15 0l0 -39 8 0 16 26 0 -26 7 0 0 39 -8 0 -15 -25 0 25 -8 0zm38 -12l7 -1c1,2 2,4 3,6 1,1 3,1 6,1 2,0 4,0 6,-1 1,-1 1,-3 1,-4 0,-1 0,-2 0,-2 -1,-1 -2,-2 -3,-2 -1,0 -3,-1 -7,-2 -4,-1 -7,-2 -8,-4 -3,-2 -4,-5 -4,-8 0,-2 1,-4 2,-5 1,-2 2,-3 5,-4 2,-1 4,-2 7,-2 5,0 9,1 11,4 3,2 4,5 4,8l-8 1c0,-2 -1,-4 -2,-5 -1,-1 -3,-1 -5,-1 -2,0 -4,0 -5,1 -1,1 -1,2 -1,3 0,1 0,2 1,2 1,1 3,2 7,3 4,1 7,2 8,3 2,1 4,2 5,4 1,1 1,4 1,6 0,2 0,4 -2,6 -1,2 -3,4 -5,5 -2,1 -5,1 -8,1 -5,0 -9,-1 -12,-3 -2,-3 -4,-6 -4,-10zm47 12l0 -32 -12 0 0 -7 31 0 0 7 -11 0 0 32 -8 0zm24 0l0 -39 8 0 0 39 -8 0zm24 0l0 -32 -11 0 0 -7 31 0 0 7 -12 0 0 32 -8 0zm25 -39l8 0 0 21c0,4 0,6 0,7 0,2 1,3 2,4 2,1 3,1 6,1 2,0 3,0 5,-1 1,-1 1,-2 2,-3 0,-2 0,-4 0,-7l0 -22 8 0 0 21c0,4 0,8 -1,10 0,2 -1,3 -2,5 -1,1 -3,2 -5,3 -2,1 -4,1 -7,1 -4,0 -7,0 -9,-1 -2,-1 -3,-2 -4,-4 -1,-1 -2,-2 -2,-4 -1,-2 -1,-6 -1,-10l0 -21zm48 39l0 -32 -12 0 0 -7 31 0 0 7 -11 0 0 32 -8 0zm25 0l0 -39 29 0 0 7 -22 0 0 8 20 0 0 7 -20 0 0 11 22 0 0 6 -29 0zm51 0l0 -39 13 0c5,0 8,0 9,1 2,0 4,1 6,3 1,2 2,5 2,8 0,3 0,5 -1,6 -1,2 -2,3 -4,4 -1,1 -2,2 -4,2 -2,0 -4,1 -8,1l-5 0 0 14 -8 0zm8 -32l0 11 4 0c3,0 6,0 7,-1 1,0 1,-1 2,-2 1,-1 1,-2 1,-3 0,-1 0,-2 -1,-3 -1,-1 -2,-2 -3,-2 -1,0 -3,0 -6,0l-4 0zm39 32l-14 -39 8 0 10 29 10 -29 8 0 -14 39 -8 0zm35 0l0 -32 -12 0 0 -7 31 0 0 7 -11 0 0 32 -8 0zm18 0l0 -7 8 0 0 7 -8 0zm31 0l0 -39 8 0 0 33 19 0 0 6 -27 0zm38 0l0 -32 -12 0 0 -7 31 0 0 7 -11 0 0 32 -8 0zm24 -39l15 0c3,0 5,0 7,1 2,0 4,2 6,3 2,2 3,4 4,7 0,2 1,5 1,9 0,3 0,6 -1,9 -1,2 -3,5 -4,7 -2,1 -4,2 -6,3 -2,0 -4,0 -7,0l-15 0 0 -39zm8 7l0 26 6 0c2,0 4,0 5,-1 1,0 2,0 3,-1 1,-1 1,-2 2,-4 0,-2 1,-4 1,-7 0,-3 -1,-6 -1,-7 -1,-2 -1,-3 -2,-4 -1,-1 -2,-2 -4,-2 -1,0 -3,0 -6,0l-4 0z"/>
   </g>
   <rect class="fil2" width="726" height="382"/>
  </g>
 </g>
</svg>
