<?xml version="1.0" encoding="UTF-8"?>
<!DOCTYPE svg PUBLIC "-//W3C//DTD SVG 1.1//EN" "http://www.w3.org/Graphics/SVG/1.1/DTD/svg11.dtd">
<!-- Creator: CorelDRAW X7 -->
<svg xmlns="http://www.w3.org/2000/svg" xml:space="preserve" width="2.39583in" height="1.26096in" version="1.1" style="shape-rendering:geometricPrecision; text-rendering:geometricPrecision; image-rendering:optimizeQuality; fill-rule:evenodd; clip-rule:evenodd"
viewBox="0 0 726 382"
 xmlns:xlink="http://www.w3.org/1999/xlink">
 <defs>
  <style type="text/css">
   <![CDATA[
    .fil2 {fill:none}
    .fil1 {fill:#3E4095}
    .fil0 {fill:#3E4095;fill-rule:nonzero}
   ]]>
  </style>
 </defs>
 <g id="Layer_x0020_1">
  <metadata id="CorelCorpID_0Corel-Layer"/>
  <g id="_1184230544">
   <g>
    <path class="fil0" d="M110 42c13,0 25,1 36,3 16,4 23,10 23,21 0,3 -1,6 -2,8 -2,1 -5,4 -12,7 -5,3 -8,9 -10,18 -1,9 -2,27 -2,54 0,45 1,73 3,83 1,4 2,6 4,8 1,2 4,4 8,6 8,4 11,9 11,16 0,9 -7,16 -20,19 -15,4 -33,6 -55,6 -36,0 -55,-8 -55,-22 0,-6 4,-10 11,-15 6,-4 9,-8 10,-15 2,-13 3,-42 3,-85 0,-30 -1,-50 -4,-58 -2,-5 -6,-9 -12,-13 -4,-4 -7,-6 -9,-8 -1,-2 -2,-5 -2,-8 0,-6 2,-10 7,-13 4,-3 13,-5 24,-8 14,-3 29,-4 43,-4zm162 245l-22 0c-16,0 -28,1 -35,1 -7,1 -11,1 -14,1 -7,0 -13,-2 -17,-5 -4,-4 -5,-8 -5,-13 0,-4 0,-6 2,-8 1,-2 5,-5 10,-9 4,-2 6,-6 7,-11 1,-5 3,-16 4,-32 2,-26 3,-58 3,-95 0,-14 -1,-23 -2,-28 -2,-5 -6,-8 -13,-11 -7,-3 -11,-8 -11,-15 0,-5 3,-9 7,-12 4,-4 10,-5 17,-5 4,0 9,0 15,0 10,1 20,1 32,1 8,0 25,-1 50,-1 7,0 14,-1 21,-1 15,0 27,2 36,4 9,3 17,7 24,13 11,10 16,23 16,39 0,8 -1,16 -5,24 -3,8 -7,14 -13,19 -4,3 -6,6 -6,9 0,3 3,5 7,7 10,4 18,11 25,20 8,9 12,21 12,36 0,17 -6,32 -18,46 -15,19 -38,28 -69,28 -4,0 -14,0 -31,-1 -14,-1 -23,-1 -27,-1zm12 -192l0 36c0,6 0,10 2,13 1,2 4,3 7,3 9,0 15,-2 19,-8 4,-5 5,-14 5,-25 0,-11 -2,-20 -6,-26 -4,-6 -9,-9 -17,-9 -4,0 -6,1 -8,4 -2,2 -2,6 -2,12zm0 102l0 17c0,15 1,25 3,31 2,5 6,7 13,7 17,0 26,-10 26,-31 0,-27 -10,-40 -29,-40 -5,0 -8,2 -10,4 -2,2 -3,6 -3,12zm216 -151l89 0c10,-1 19,-2 26,-4 4,-1 7,-2 9,-2 10,0 18,7 27,21 9,15 13,29 13,44 0,10 -3,18 -9,23 -5,3 -10,5 -16,5 -6,0 -11,-2 -16,-5 -4,-4 -8,-10 -13,-18 -3,-7 -6,-12 -9,-14 -2,-2 -4,-3 -7,-3 -4,0 -7,2 -9,5 -2,4 -3,10 -3,18l0 99c0,11 1,18 3,22 2,5 6,9 12,11 6,3 10,5 12,8 2,2 3,6 3,10 0,8 -5,15 -16,19 -11,4 -28,6 -51,6 -28,0 -48,-3 -62,-7 -11,-4 -17,-11 -17,-20 0,-5 2,-8 6,-11 1,-1 5,-2 12,-4 5,-2 7,-4 9,-8 2,-3 3,-10 4,-21 1,-9 2,-24 3,-45 0,-20 1,-38 1,-53 0,-11 -1,-18 -3,-23 -1,-4 -4,-6 -7,-6 -5,0 -9,3 -13,9 -8,13 -14,20 -19,24 -5,5 -11,7 -16,7 -6,0 -11,-2 -15,-7 -4,-5 -6,-11 -6,-18 0,-8 1,-16 4,-24 4,-9 8,-17 13,-25 9,-12 17,-18 25,-18 3,0 5,1 8,1 6,2 11,2 15,3 4,0 8,1 13,1z"/>
    <path class="fil1" d="M673 31c3,0 6,1 8,2 3,2 5,4 7,7 2,3 2,5 2,9 0,3 0,5 -2,8 -2,3 -4,5 -7,7 -2,1 -5,2 -8,2 -3,0 -6,-1 -9,-2 -3,-2 -5,-4 -7,-7 -1,-3 -2,-5 -2,-8 0,-4 1,-6 2,-9 2,-3 4,-5 7,-7 3,-1 6,-2 9,-2zm0 3c-3,0 -5,1 -8,2 -2,1 -4,3 -5,5 -1,3 -2,5 -2,8 0,2 1,4 2,7 1,2 3,4 5,5 3,1 5,2 8,2 2,0 5,-1 7,-2 2,-1 4,-3 5,-5 2,-3 2,-5 2,-7 0,-3 0,-5 -2,-8 -1,-2 -3,-4 -5,-5 -2,-1 -5,-2 -7,-2zm-8 24l0 -19 6 0c3,0 4,1 5,1 1,0 2,1 3,2 0,1 1,2 1,2 0,2 -1,3 -2,4 -1,1 -2,2 -4,2 1,0 1,0 2,1 1,1 1,2 3,4l2 3 -4 0 -2 -3c-1,-2 -2,-4 -3,-4 0,-1 -1,-1 -2,-1l-2 0 0 8 -3 0zm3 -10l4 0c2,0 3,-1 3,-1 1,-1 1,-1 1,-2 0,-1 0,-1 0,-2 0,0 -1,-1 -1,-1 -1,0 -2,0 -4,0l-3 0 0 6z"/>
    <polygon class="fil0" points="43,350 43,315 50,315 50,350 "/>
    <path id="1" class="fil0" d="M57 315l14 0c3,0 5,0 7,0 1,0 2,1 3,2 1,0 2,1 3,3 1,1 1,2 1,4 0,1 0,3 -1,4 -1,2 -2,3 -4,3 2,1 4,2 5,4 1,1 2,3 2,5 0,2 -1,3 -1,5 -1,1 -2,3 -3,4 -2,0 -3,1 -5,1 -1,0 -4,0 -9,0l-12 0 0 -35zm7 6l0 8 5 0c3,0 4,0 5,0 1,0 2,-1 3,-1 1,-1 1,-2 1,-3 0,-1 0,-2 -1,-3 0,-1 -1,-1 -3,-1 0,0 -2,0 -6,0l-4 0zm0 14l0 9 7 0c2,0 4,0 5,0 1,0 2,0 2,-1 1,-1 1,-2 1,-3 0,-1 0,-2 0,-3 -1,-1 -2,-1 -3,-2 -1,0 -3,0 -6,0l-6 0z"/>
    <polygon id="2" class="fil0" points="101,350 101,321 90,321 90,315 118,315 118,321 108,321 108,350 "/>
    <path id="3" class="fil0" d="M135 333c0,-4 1,-7 2,-9 1,-2 2,-4 3,-5 2,-2 3,-3 5,-3 2,-1 5,-2 7,-2 6,0 10,2 13,5 3,3 5,8 5,14 0,5 -2,10 -5,13 -3,3 -7,5 -12,5 -6,0 -10,-2 -13,-5 -3,-3 -5,-7 -5,-13zm8 0c0,4 1,7 2,9 2,2 5,3 8,3 2,0 5,-1 7,-3 1,-2 2,-5 2,-10 0,-4 -1,-7 -2,-9 -2,-2 -5,-3 -7,-3 -3,0 -6,1 -8,3 -1,2 -2,5 -2,10z"/>
    <polygon id="4" class="fil0" points="184,350 172,315 179,315 188,341 197,315 205,315 192,350 "/>
    <polygon id="5" class="fil0" points="208,350 208,315 234,315 234,321 215,321 215,329 233,329 233,335 215,335 215,344 235,344 235,350 "/>
    <path id="6" class="fil0" d="M241 350l0 -35 15 0c4,0 7,0 9,1 1,0 3,2 4,3 1,2 1,4 1,6 0,2 -1,5 -2,6 -2,2 -4,3 -7,4 1,1 3,2 4,3 1,1 2,3 4,5l4 7 -8 0 -6 -7c-1,-3 -3,-5 -3,-6 -1,0 -2,-1 -2,-1 -1,0 -2,0 -4,0l-2 0 0 14 -7 0zm7 -20l6 0c3,0 5,0 6,-1 1,0 2,0 2,-1 1,-1 1,-2 1,-3 0,-1 0,-2 -1,-3 -1,0 -2,-1 -3,-1 0,0 -2,0 -5,0l-6 0 0 9z"/>
    <path id="7" class="fil0" d="M275 339l7 -1c0,3 1,4 3,5 1,1 3,2 5,2 2,0 4,0 5,-1 1,-1 2,-3 2,-4 0,-1 -1,-1 -1,-2 0,-1 -1,-1 -3,-2 0,0 -2,0 -5,-1 -4,-1 -7,-2 -8,-4 -2,-2 -4,-4 -4,-7 0,-2 1,-3 2,-5 1,-2 2,-3 4,-4 2,0 5,-1 7,-1 5,0 8,1 10,3 3,2 4,5 4,8l-7 0c-1,-2 -1,-3 -2,-4 -1,0 -3,-1 -5,-1 -2,0 -3,1 -5,1 0,1 -1,2 -1,3 0,0 1,1 1,2 1,1 3,1 7,2 3,1 6,2 8,3 1,1 3,2 3,3 1,2 2,4 2,6 0,2 -1,4 -2,6 -1,2 -3,3 -5,4 -2,1 -4,1 -7,1 -5,0 -8,-1 -11,-3 -2,-2 -3,-5 -4,-9z"/>
    <polygon id="8" class="fil0" points="310,350 310,315 336,315 336,321 317,321 317,329 335,329 335,335 317,335 317,344 337,344 337,350 "/>
    <path id="9" class="fil0" d="M375 350l-8 0 -3 -8 -14 0 -3 8 -8 0 14 -35 8 0 14 35zm-13 -14l-5 -13 -5 13 10 0z"/>
    <path id="10" class="fil0" d="M377 339l7 -1c0,3 1,4 2,5 2,1 3,2 6,2 2,0 4,0 5,-1 1,-1 1,-3 1,-4 0,-1 0,-1 0,-2 -1,-1 -2,-1 -3,-2 -1,0 -3,0 -6,-1 -3,-1 -6,-2 -8,-4 -2,-2 -3,-4 -3,-7 0,-2 1,-3 2,-5 1,-2 2,-3 4,-4 2,0 4,-1 7,-1 4,0 8,1 10,3 2,2 3,5 4,8l-8 0c0,-2 -1,-3 -2,-4 -1,0 -2,-1 -4,-1 -2,0 -4,1 -5,1 -1,1 -1,2 -1,3 0,0 0,1 1,2 1,1 3,1 7,2 3,1 6,2 7,3 2,1 3,2 4,3 1,2 2,4 2,6 0,2 -1,4 -2,6 -1,2 -3,3 -5,4 -2,1 -4,1 -8,1 -4,0 -7,-1 -10,-3 -2,-2 -4,-5 -4,-9z"/>
    <path id="11" class="fil0" d="M424 339l7 -1c0,3 1,4 2,5 1,1 3,2 5,2 3,0 4,0 5,-1 2,-1 2,-3 2,-4 0,-1 0,-1 -1,-2 0,-1 -1,-1 -2,-2 -1,0 -3,0 -6,-1 -4,-1 -6,-2 -8,-4 -2,-2 -3,-4 -3,-7 0,-2 0,-3 1,-5 1,-2 3,-3 5,-4 2,0 4,-1 7,-1 4,0 8,1 10,3 2,2 3,5 3,8l-7 0c0,-2 -1,-3 -2,-4 -1,0 -2,-1 -4,-1 -2,0 -4,1 -5,1 -1,1 -1,2 -1,3 0,0 0,1 1,2 1,1 3,1 6,2 4,1 6,2 8,3 2,1 3,2 4,3 1,2 1,4 1,6 0,2 0,4 -1,6 -1,2 -3,3 -5,4 -2,1 -5,1 -8,1 -4,0 -8,-1 -10,-3 -3,-2 -4,-5 -4,-9z"/>
    <polygon id="12" class="fil0" points="458,350 458,315 485,315 485,321 466,321 466,329 483,329 483,335 466,335 466,344 485,344 485,350 "/>
    <path id="13" class="fil0" d="M491 350l0 -35 15 0c4,0 7,0 9,1 1,0 3,2 4,3 1,2 1,4 1,6 0,2 0,5 -2,6 -1,2 -4,3 -7,4 2,1 3,2 4,3 1,1 2,3 4,5l4 7 -8 0 -5 -7c-2,-3 -3,-5 -4,-6 -1,0 -2,-1 -2,-1 -1,0 -2,0 -4,0l-1 0 0 14 -8 0zm8 -20l5 0c3,0 5,0 6,-1 1,0 2,0 2,-1 1,-1 1,-2 1,-3 0,-1 0,-2 -1,-3 -1,0 -1,-1 -3,-1 0,0 -2,0 -5,0l-5 0 0 9z"/>
    <polygon id="14" class="fil0" points="535,350 523,315 530,315 539,341 548,315 556,315 543,350 "/>
    <polygon id="15" class="fil0" points="559,350 559,315 566,315 566,350 "/>
    <path id="16" class="fil0" d="M596 337l7 2c-1,4 -3,7 -6,9 -2,2 -5,3 -9,3 -5,0 -9,-2 -12,-5 -3,-3 -4,-7 -4,-13 0,-6 1,-11 4,-14 3,-3 7,-5 12,-5 5,0 8,1 11,4 1,2 3,4 3,7l-7 1c0,-2 -1,-3 -2,-4 -2,-1 -3,-2 -5,-2 -3,0 -5,1 -6,3 -2,2 -3,5 -3,9 0,5 1,8 2,10 2,2 4,3 7,3 2,0 3,-1 5,-2 1,-1 2,-3 3,-6z"/>
    <polygon id="17" class="fil0" points="609,350 609,315 635,315 635,321 616,321 616,329 634,329 634,335 616,335 616,344 636,344 636,350 "/>
    <path id="18" class="fil0" d="M640 339l7 -1c0,3 1,4 2,5 2,1 3,2 6,2 2,0 4,0 5,-1 1,-1 1,-3 1,-4 0,-1 0,-1 0,-2 -1,-1 -2,-1 -3,-2 -1,0 -3,0 -6,-1 -3,-1 -6,-2 -8,-4 -2,-2 -3,-4 -3,-7 0,-2 1,-3 2,-5 1,-2 2,-3 4,-4 2,0 4,-1 7,-1 4,0 8,1 10,3 2,2 3,5 4,8l-8 0c0,-2 -1,-3 -2,-4 -1,0 -2,-1 -4,-1 -2,0 -4,1 -5,1 -1,1 -1,2 -1,3 0,0 0,1 1,2 1,1 3,1 7,2 3,1 6,2 7,3 2,1 3,2 4,3 1,2 2,4 2,6 0,2 -1,4 -2,6 -1,2 -3,3 -5,4 -2,1 -4,1 -8,1 -4,0 -7,-1 -10,-3 -2,-2 -4,-5 -4,-9z"/>
   </g>
   <rect class="fil2" width="726" height="382"/>
  </g>
 </g>
</svg>
